<svg xmlns="http://www.w3.org/2000/svg" viewBox="0 0 96 96" role="img" aria-labelledby="title desc">
<title id="title">Canelita Games logo</title>
<desc id="desc">Recreacion en SVG del logo actual de Canelita Games a partir del asset publicado en la web.</desc>
<g fill="#280324">
<rect x="43" y="4" width="2" height="1"/>
<rect x="51" y="4" width="2" height="1"/>
<rect x="37" y="5" width="1" height="1"/>
<rect x="58" y="5" width="1" height="1"/>
<rect x="34" y="6" width="1" height="1"/>
<rect x="61" y="6" width="1" height="1"/>
<rect x="31" y="7" width="1" height="1"/>
<rect x="64" y="7" width="1" height="1"/>
<rect x="29" y="8" width="1" height="1"/>
<rect x="66" y="8" width="1" height="1"/>
<rect x="27" y="9" width="1" height="1"/>
<rect x="68" y="9" width="1" height="1"/>
<rect x="25" y="10" width="1" height="1"/>
<rect x="70" y="10" width="1" height="1"/>
<rect x="22" y="12" width="1" height="1"/>
<rect x="73" y="12" width="1" height="1"/>
<rect x="47" y="17" width="2" height="1"/>
<rect x="47" y="18" width="2" height="1"/>
<rect x="24" y="19" width="2" height="1"/>
<rect x="40" y="19" width="4" height="1"/>
<rect x="46" y="19" width="4" height="1"/>
<rect x="52" y="19" width="4" height="1"/>
<rect x="70" y="19" width="2" height="1"/>
<rect x="23" y="20" width="5" height="1"/>
<rect x="40" y="20" width="7" height="1"/>
<rect x="48" y="20" width="7" height="1"/>
<rect x="68" y="20" width="6" height="1"/>
<rect x="13" y="21" width="1" height="1"/>
<rect x="22" y="21" width="8" height="1"/>
<rect x="41" y="21" width="2" height="1"/>
<rect x="44" y="21" width="11" height="1"/>
<rect x="66" y="21" width="8" height="1"/>
<rect x="82" y="21" width="1" height="1"/>
<rect x="12" y="22" width="1" height="1"/>
<rect x="21" y="22" width="10" height="1"/>
<rect x="41" y="22" width="2" height="1"/>
<rect x="44" y="22" width="11" height="1"/>
<rect x="65" y="22" width="10" height="1"/>
<rect x="83" y="22" width="1" height="1"/>
<rect x="20" y="23" width="8" height="1"/>
<rect x="29" y="23" width="3" height="1"/>
<rect x="42" y="23" width="1" height="1"/>
<rect x="44" y="23" width="10" height="1"/>
<rect x="64" y="23" width="3" height="1"/>
<rect x="68" y="23" width="8" height="1"/>
<rect x="20" y="24" width="10" height="1"/>
<rect x="31" y="24" width="3" height="1"/>
<rect x="42" y="24" width="2" height="1"/>
<rect x="45" y="24" width="9" height="1"/>
<rect x="62" y="24" width="3" height="1"/>
<rect x="66" y="24" width="10" height="1"/>
<rect x="10" y="25" width="1" height="1"/>
<rect x="19" y="25" width="11" height="1"/>
<rect x="32" y="25" width="3" height="1"/>
<rect x="41" y="25" width="3" height="1"/>
<rect x="45" y="25" width="10" height="1"/>
<rect x="61" y="25" width="3" height="1"/>
<rect x="66" y="25" width="11" height="1"/>
<rect x="85" y="25" width="1" height="1"/>
<rect x="19" y="26" width="11" height="1"/>
<rect x="31" y="26" width="2" height="1"/>
<rect x="34" y="26" width="2" height="1"/>
<rect x="39" y="26" width="4" height="1"/>
<rect x="45" y="26" width="13" height="1"/>
<rect x="60" y="26" width="2" height="1"/>
<rect x="63" y="26" width="2" height="1"/>
<rect x="66" y="26" width="11" height="1"/>
<rect x="9" y="27" width="1" height="1"/>
<rect x="19" y="27" width="14" height="1"/>
<rect x="35" y="27" width="5" height="1"/>
<rect x="43" y="27" width="18" height="1"/>
<rect x="64" y="27" width="13" height="1"/>
<rect x="86" y="27" width="1" height="1"/>
<rect x="19" y="28" width="19" height="1"/>
<rect x="41" y="28" width="21" height="1"/>
<rect x="63" y="28" width="14" height="1"/>
<rect x="8" y="29" width="1" height="1"/>
<rect x="20" y="29" width="16" height="1"/>
<rect x="39" y="29" width="37" height="1"/>
<rect x="87" y="29" width="1" height="1"/>
<rect x="21" y="30" width="14" height="1"/>
<rect x="42" y="30" width="12" height="1"/>
<rect x="59" y="30" width="16" height="1"/>
<rect x="7" y="31" width="1" height="1"/>
<rect x="22" y="31" width="12" height="1"/>
<rect x="37" y="31" width="5" height="1"/>
<rect x="44" y="31" width="8" height="1"/>
<rect x="55" y="31" width="3" height="1"/>
<rect x="60" y="31" width="14" height="1"/>
<rect x="88" y="31" width="1" height="1"/>
<rect x="24" y="32" width="10" height="1"/>
<rect x="37" y="32" width="2" height="1"/>
<rect x="40" y="32" width="2" height="1"/>
<rect x="45" y="32" width="6" height="1"/>
<rect x="54" y="32" width="5" height="1"/>
<rect x="62" y="32" width="11" height="1"/>
<rect x="6" y="33" width="1" height="1"/>
<rect x="25" y="33" width="8" height="1"/>
<rect x="37" y="33" width="1" height="1"/>
<rect x="39" y="33" width="4" height="1"/>
<rect x="46" y="33" width="4" height="1"/>
<rect x="53" y="33" width="2" height="1"/>
<rect x="56" y="33" width="3" height="1"/>
<rect x="62" y="33" width="9" height="1"/>
<rect x="89" y="33" width="1" height="1"/>
<rect x="6" y="34" width="1" height="1"/>
<rect x="26" y="34" width="6" height="1"/>
<rect x="37" y="34" width="5" height="1"/>
<rect x="47" y="34" width="2" height="1"/>
<rect x="54" y="34" width="5" height="1"/>
<rect x="63" y="34" width="7" height="1"/>
<rect x="89" y="34" width="1" height="1"/>
<rect x="28" y="35" width="4" height="1"/>
<rect x="33" y="35" width="13" height="1"/>
<rect x="47" y="35" width="2" height="1"/>
<rect x="51" y="35" width="2" height="1"/>
<rect x="54" y="35" width="5" height="1"/>
<rect x="60" y="35" width="2" height="1"/>
<rect x="64" y="35" width="5" height="1"/>
<rect x="5" y="36" width="1" height="1"/>
<rect x="29" y="36" width="3" height="1"/>
<rect x="33" y="36" width="11" height="1"/>
<rect x="45" y="36" width="1" height="1"/>
<rect x="47" y="36" width="2" height="1"/>
<rect x="50" y="36" width="4" height="1"/>
<rect x="55" y="36" width="2" height="1"/>
<rect x="58" y="36" width="5" height="1"/>
<rect x="64" y="36" width="3" height="1"/>
<rect x="90" y="36" width="1" height="1"/>
<rect x="5" y="37" width="1" height="1"/>
<rect x="30" y="37" width="2" height="1"/>
<rect x="33" y="37" width="1" height="1"/>
<rect x="35" y="37" width="12" height="1"/>
<rect x="48" y="37" width="3" height="1"/>
<rect x="52" y="37" width="3" height="1"/>
<rect x="58" y="37" width="1" height="1"/>
<rect x="61" y="37" width="5" height="1"/>
<rect x="90" y="37" width="1" height="1"/>
<rect x="5" y="38" width="1" height="1"/>
<rect x="30" y="38" width="2" height="1"/>
<rect x="33" y="38" width="14" height="1"/>
<rect x="48" y="38" width="7" height="1"/>
<rect x="58" y="38" width="8" height="1"/>
<rect x="90" y="38" width="1" height="1"/>
<rect x="30" y="39" width="2" height="1"/>
<rect x="33" y="39" width="13" height="1"/>
<rect x="47" y="39" width="2" height="1"/>
<rect x="50" y="39" width="4" height="1"/>
<rect x="56" y="39" width="1" height="1"/>
<rect x="58" y="39" width="5" height="1"/>
<rect x="64" y="39" width="2" height="1"/>
<rect x="4" y="40" width="1" height="1"/>
<rect x="30" y="40" width="2" height="1"/>
<rect x="33" y="40" width="13" height="1"/>
<rect x="47" y="40" width="2" height="1"/>
<rect x="50" y="40" width="3" height="1"/>
<rect x="54" y="40" width="4" height="1"/>
<rect x="59" y="40" width="3" height="1"/>
<rect x="64" y="40" width="2" height="1"/>
<rect x="91" y="40" width="1" height="1"/>
<rect x="4" y="41" width="1" height="1"/>
<rect x="30" y="41" width="3" height="1"/>
<rect x="37" y="41" width="5" height="1"/>
<rect x="47" y="41" width="2" height="1"/>
<rect x="54" y="41" width="1" height="1"/>
<rect x="57" y="41" width="2" height="1"/>
<rect x="63" y="41" width="3" height="1"/>
<rect x="91" y="41" width="1" height="1"/>
<rect x="4" y="42" width="1" height="1"/>
<rect x="30" y="42" width="3" height="1"/>
<rect x="37" y="42" width="6" height="1"/>
<rect x="46" y="42" width="4" height="1"/>
<rect x="53" y="42" width="6" height="1"/>
<rect x="63" y="42" width="3" height="1"/>
<rect x="91" y="42" width="1" height="1"/>
<rect x="4" y="43" width="1" height="1"/>
<rect x="30" y="43" width="4" height="1"/>
<rect x="37" y="43" width="5" height="1"/>
<rect x="45" y="43" width="6" height="1"/>
<rect x="54" y="43" width="5" height="1"/>
<rect x="62" y="43" width="5" height="1"/>
<rect x="91" y="43" width="1" height="1"/>
<rect x="4" y="44" width="1" height="1"/>
<rect x="28" y="44" width="7" height="1"/>
<rect x="37" y="44" width="5" height="1"/>
<rect x="44" y="44" width="8" height="1"/>
<rect x="55" y="44" width="3" height="1"/>
<rect x="61" y="44" width="7" height="1"/>
<rect x="91" y="44" width="1" height="1"/>
<rect x="4" y="45" width="1" height="1"/>
<rect x="27" y="45" width="2" height="1"/>
<rect x="31" y="45" width="6" height="1"/>
<rect x="43" y="45" width="11" height="1"/>
<rect x="59" y="45" width="7" height="1"/>
<rect x="67" y="45" width="2" height="1"/>
<rect x="91" y="45" width="1" height="1"/>
<rect x="4" y="46" width="1" height="1"/>
<rect x="26" y="46" width="2" height="1"/>
<rect x="30" y="46" width="3" height="1"/>
<rect x="34" y="46" width="33" height="1"/>
<rect x="68" y="46" width="3" height="1"/>
<rect x="91" y="46" width="1" height="1"/>
<rect x="4" y="47" width="1" height="1"/>
<rect x="24" y="47" width="3" height="1"/>
<rect x="29" y="47" width="38" height="1"/>
<rect x="70" y="47" width="2" height="1"/>
<rect x="91" y="47" width="1" height="1"/>
<rect x="3" y="48" width="2" height="1"/>
<rect x="23" y="48" width="2" height="1"/>
<rect x="28" y="48" width="41" height="1"/>
<rect x="71" y="48" width="2" height="1"/>
<rect x="91" y="48" width="2" height="1"/>
<rect x="3" y="49" width="2" height="1"/>
<rect x="22" y="49" width="52" height="1"/>
<rect x="91" y="49" width="2" height="1"/>
<rect x="3" y="50" width="2" height="1"/>
<rect x="21" y="50" width="54" height="1"/>
<rect x="91" y="50" width="2" height="1"/>
<rect x="3" y="51" width="2" height="1"/>
<rect x="20" y="51" width="56" height="1"/>
<rect x="91" y="51" width="2" height="1"/>
<rect x="3" y="52" width="2" height="1"/>
<rect x="19" y="52" width="58" height="1"/>
<rect x="91" y="52" width="2" height="1"/>
<rect x="3" y="53" width="2" height="1"/>
<rect x="19" y="53" width="18" height="1"/>
<rect x="38" y="53" width="20" height="1"/>
<rect x="59" y="53" width="18" height="1"/>
<rect x="91" y="53" width="2" height="1"/>
<rect x="3" y="54" width="2" height="1"/>
<rect x="19" y="54" width="17" height="1"/>
<rect x="40" y="54" width="16" height="1"/>
<rect x="60" y="54" width="17" height="1"/>
<rect x="91" y="54" width="2" height="1"/>
<rect x="3" y="55" width="2" height="1"/>
<rect x="19" y="55" width="16" height="1"/>
<rect x="43" y="55" width="10" height="1"/>
<rect x="62" y="55" width="15" height="1"/>
<rect x="91" y="55" width="2" height="1"/>
<rect x="4" y="56" width="2" height="1"/>
<rect x="20" y="56" width="13" height="1"/>
<rect x="45" y="56" width="6" height="1"/>
<rect x="63" y="56" width="14" height="1"/>
<rect x="90" y="56" width="2" height="1"/>
<rect x="4" y="57" width="2" height="1"/>
<rect x="20" y="57" width="12" height="1"/>
<rect x="46" y="57" width="4" height="1"/>
<rect x="64" y="57" width="12" height="1"/>
<rect x="90" y="57" width="2" height="1"/>
<rect x="4" y="58" width="2" height="1"/>
<rect x="21" y="58" width="10" height="1"/>
<rect x="46" y="58" width="4" height="1"/>
<rect x="66" y="58" width="9" height="1"/>
<rect x="90" y="58" width="2" height="1"/>
<rect x="4" y="59" width="2" height="1"/>
<rect x="22" y="59" width="7" height="1"/>
<rect x="47" y="59" width="2" height="1"/>
<rect x="67" y="59" width="7" height="1"/>
<rect x="90" y="59" width="2" height="1"/>
<rect x="4" y="60" width="3" height="1"/>
<rect x="23" y="60" width="4" height="1"/>
<rect x="47" y="60" width="2" height="1"/>
<rect x="69" y="60" width="4" height="1"/>
<rect x="89" y="60" width="3" height="1"/>
<rect x="5" y="61" width="2" height="1"/>
<rect x="89" y="61" width="2" height="1"/>
<rect x="5" y="62" width="2" height="1"/>
<rect x="64" y="62" width="1" height="1"/>
<rect x="89" y="62" width="2" height="1"/>
<rect x="5" y="63" width="3" height="1"/>
<rect x="24" y="63" width="6" height="1"/>
<rect x="33" y="63" width="2" height="1"/>
<rect x="38" y="63" width="2" height="1"/>
<rect x="43" y="63" width="2" height="1"/>
<rect x="46" y="63" width="5" height="1"/>
<rect x="52" y="63" width="2" height="1"/>
<rect x="58" y="63" width="1" height="1"/>
<rect x="60" y="63" width="6" height="1"/>
<rect x="68" y="63" width="2" height="1"/>
<rect x="88" y="63" width="3" height="1"/>
<rect x="6" y="64" width="2" height="1"/>
<rect x="24" y="64" width="2" height="1"/>
<rect x="28" y="64" width="2" height="1"/>
<rect x="32" y="64" width="3" height="1"/>
<rect x="38" y="64" width="3" height="1"/>
<rect x="43" y="64" width="2" height="1"/>
<rect x="46" y="64" width="2" height="1"/>
<rect x="52" y="64" width="2" height="1"/>
<rect x="58" y="64" width="2" height="1"/>
<rect x="62" y="64" width="2" height="1"/>
<rect x="68" y="64" width="3" height="1"/>
<rect x="88" y="64" width="2" height="1"/>
<rect x="6" y="65" width="2" height="1"/>
<rect x="23" y="65" width="2" height="1"/>
<rect x="32" y="65" width="4" height="1"/>
<rect x="38" y="65" width="4" height="1"/>
<rect x="43" y="65" width="2" height="1"/>
<rect x="46" y="65" width="4" height="1"/>
<rect x="52" y="65" width="2" height="1"/>
<rect x="58" y="65" width="2" height="1"/>
<rect x="62" y="65" width="2" height="1"/>
<rect x="67" y="65" width="4" height="1"/>
<rect x="88" y="65" width="2" height="1"/>
<rect x="6" y="66" width="3" height="1"/>
<rect x="23" y="66" width="2" height="1"/>
<rect x="31" y="66" width="2" height="1"/>
<rect x="34" y="66" width="2" height="1"/>
<rect x="38" y="66" width="7" height="1"/>
<rect x="46" y="66" width="5" height="1"/>
<rect x="52" y="66" width="2" height="1"/>
<rect x="58" y="66" width="2" height="1"/>
<rect x="62" y="66" width="2" height="1"/>
<rect x="67" y="66" width="2" height="1"/>
<rect x="70" y="66" width="2" height="1"/>
<rect x="87" y="66" width="3" height="1"/>
<rect x="7" y="67" width="2" height="1"/>
<rect x="23" y="67" width="2" height="1"/>
<rect x="31" y="67" width="5" height="1"/>
<rect x="38" y="67" width="2" height="1"/>
<rect x="41" y="67" width="4" height="1"/>
<rect x="46" y="67" width="2" height="1"/>
<rect x="52" y="67" width="2" height="1"/>
<rect x="58" y="67" width="2" height="1"/>
<rect x="62" y="67" width="2" height="1"/>
<rect x="67" y="67" width="5" height="1"/>
<rect x="87" y="67" width="2" height="1"/>
<rect x="7" y="68" width="3" height="1"/>
<rect x="24" y="68" width="13" height="1"/>
<rect x="38" y="68" width="2" height="1"/>
<rect x="42" y="68" width="3" height="1"/>
<rect x="46" y="68" width="5" height="1"/>
<rect x="52" y="68" width="5" height="1"/>
<rect x="58" y="68" width="2" height="1"/>
<rect x="62" y="68" width="2" height="1"/>
<rect x="66" y="68" width="7" height="1"/>
<rect x="86" y="68" width="3" height="1"/>
<rect x="8" y="69" width="2" height="1"/>
<rect x="25" y="69" width="4" height="1"/>
<rect x="30" y="69" width="2" height="1"/>
<rect x="35" y="69" width="2" height="1"/>
<rect x="38" y="69" width="2" height="1"/>
<rect x="43" y="69" width="1" height="1"/>
<rect x="46" y="69" width="5" height="1"/>
<rect x="52" y="69" width="5" height="1"/>
<rect x="58" y="69" width="1" height="1"/>
<rect x="62" y="69" width="2" height="1"/>
<rect x="66" y="69" width="2" height="1"/>
<rect x="71" y="69" width="2" height="1"/>
<rect x="86" y="69" width="2" height="1"/>
<rect x="8" y="70" width="3" height="1"/>
<rect x="85" y="70" width="3" height="1"/>
<rect x="9" y="71" width="3" height="1"/>
<rect x="84" y="71" width="3" height="1"/>
<rect x="10" y="72" width="2" height="1"/>
<rect x="32" y="72" width="4" height="1"/>
<rect x="40" y="72" width="1" height="1"/>
<rect x="45" y="72" width="1" height="1"/>
<rect x="51" y="72" width="1" height="1"/>
<rect x="54" y="72" width="5" height="1"/>
<rect x="61" y="72" width="4" height="1"/>
<rect x="84" y="72" width="2" height="1"/>
<rect x="10" y="73" width="3" height="1"/>
<rect x="31" y="73" width="5" height="1"/>
<rect x="39" y="73" width="3" height="1"/>
<rect x="45" y="73" width="2" height="1"/>
<rect x="50" y="73" width="2" height="1"/>
<rect x="54" y="73" width="5" height="1"/>
<rect x="60" y="73" width="5" height="1"/>
<rect x="83" y="73" width="3" height="1"/>
<rect x="11" y="74" width="3" height="1"/>
<rect x="30" y="74" width="2" height="1"/>
<rect x="39" y="74" width="3" height="1"/>
<rect x="45" y="74" width="3" height="1"/>
<rect x="49" y="74" width="3" height="1"/>
<rect x="54" y="74" width="2" height="1"/>
<rect x="60" y="74" width="2" height="1"/>
<rect x="82" y="74" width="3" height="1"/>
<rect x="12" y="75" width="3" height="1"/>
<rect x="30" y="75" width="2" height="1"/>
<rect x="34" y="75" width="3" height="1"/>
<rect x="38" y="75" width="2" height="1"/>
<rect x="41" y="75" width="2" height="1"/>
<rect x="45" y="75" width="7" height="1"/>
<rect x="54" y="75" width="4" height="1"/>
<rect x="60" y="75" width="5" height="1"/>
<rect x="81" y="75" width="3" height="1"/>
<rect x="12" y="76" width="3" height="1"/>
<rect x="30" y="76" width="2" height="1"/>
<rect x="34" y="76" width="3" height="1"/>
<rect x="38" y="76" width="5" height="1"/>
<rect x="45" y="76" width="5" height="1"/>
<rect x="51" y="76" width="1" height="1"/>
<rect x="54" y="76" width="2" height="1"/>
<rect x="63" y="76" width="2" height="1"/>
<rect x="81" y="76" width="3" height="1"/>
<rect x="13" y="77" width="3" height="1"/>
<rect x="31" y="77" width="2" height="1"/>
<rect x="35" y="77" width="2" height="1"/>
<rect x="38" y="77" width="6" height="1"/>
<rect x="45" y="77" width="1" height="1"/>
<rect x="48" y="77" width="1" height="1"/>
<rect x="51" y="77" width="1" height="1"/>
<rect x="54" y="77" width="2" height="1"/>
<rect x="57" y="77" width="1" height="1"/>
<rect x="60" y="77" width="2" height="1"/>
<rect x="63" y="77" width="2" height="1"/>
<rect x="80" y="77" width="3" height="1"/>
<rect x="14" y="78" width="3" height="1"/>
<rect x="32" y="78" width="4" height="1"/>
<rect x="37" y="78" width="2" height="1"/>
<rect x="42" y="78" width="2" height="1"/>
<rect x="45" y="78" width="1" height="1"/>
<rect x="51" y="78" width="1" height="1"/>
<rect x="54" y="78" width="5" height="1"/>
<rect x="60" y="78" width="5" height="1"/>
<rect x="79" y="78" width="3" height="1"/>
<rect x="15" y="79" width="3" height="1"/>
<rect x="78" y="79" width="3" height="1"/>
<rect x="16" y="80" width="3" height="1"/>
<rect x="77" y="80" width="3" height="1"/>
<rect x="17" y="81" width="4" height="1"/>
<rect x="75" y="81" width="4" height="1"/>
<rect x="18" y="82" width="4" height="1"/>
<rect x="74" y="82" width="4" height="1"/>
<rect x="19" y="83" width="4" height="1"/>
<rect x="73" y="83" width="4" height="1"/>
<rect x="20" y="84" width="5" height="1"/>
<rect x="71" y="84" width="5" height="1"/>
<rect x="21" y="85" width="5" height="1"/>
<rect x="70" y="85" width="5" height="1"/>
<rect x="23" y="86" width="5" height="1"/>
<rect x="68" y="86" width="5" height="1"/>
<rect x="24" y="87" width="6" height="1"/>
<rect x="66" y="87" width="6" height="1"/>
<rect x="26" y="88" width="7" height="1"/>
<rect x="63" y="88" width="7" height="1"/>
<rect x="28" y="89" width="8" height="1"/>
<rect x="60" y="89" width="8" height="1"/>
<rect x="30" y="90" width="10" height="1"/>
<rect x="56" y="90" width="10" height="1"/>
<rect x="33" y="91" width="30" height="1"/>
<rect x="36" y="92" width="24" height="1"/>
<rect x="40" y="93" width="16" height="1"/>
</g>
<g fill="#ffffff">
<rect x="45" y="4" width="6" height="1"/>
<rect x="38" y="5" width="20" height="1"/>
<rect x="35" y="6" width="26" height="1"/>
<rect x="32" y="7" width="32" height="1"/>
<rect x="30" y="8" width="36" height="1"/>
<rect x="28" y="9" width="40" height="1"/>
<rect x="26" y="10" width="44" height="1"/>
<rect x="24" y="11" width="48" height="1"/>
<rect x="23" y="12" width="50" height="1"/>
<rect x="21" y="13" width="54" height="1"/>
<rect x="20" y="14" width="56" height="1"/>
<rect x="19" y="15" width="58" height="1"/>
<rect x="18" y="16" width="60" height="1"/>
<rect x="17" y="17" width="30" height="1"/>
<rect x="49" y="17" width="30" height="1"/>
<rect x="16" y="18" width="31" height="1"/>
<rect x="49" y="18" width="31" height="1"/>
<rect x="15" y="19" width="9" height="1"/>
<rect x="26" y="19" width="14" height="1"/>
<rect x="44" y="19" width="2" height="1"/>
<rect x="50" y="19" width="2" height="1"/>
<rect x="56" y="19" width="14" height="1"/>
<rect x="72" y="19" width="9" height="1"/>
<rect x="14" y="20" width="9" height="1"/>
<rect x="28" y="20" width="12" height="1"/>
<rect x="47" y="20" width="1" height="1"/>
<rect x="55" y="20" width="13" height="1"/>
<rect x="74" y="20" width="8" height="1"/>
<rect x="14" y="21" width="8" height="1"/>
<rect x="30" y="21" width="11" height="1"/>
<rect x="43" y="21" width="1" height="1"/>
<rect x="55" y="21" width="11" height="1"/>
<rect x="74" y="21" width="8" height="1"/>
<rect x="13" y="22" width="8" height="1"/>
<rect x="31" y="22" width="10" height="1"/>
<rect x="43" y="22" width="1" height="1"/>
<rect x="55" y="22" width="10" height="1"/>
<rect x="75" y="22" width="8" height="1"/>
<rect x="12" y="23" width="8" height="1"/>
<rect x="28" y="23" width="1" height="1"/>
<rect x="32" y="23" width="10" height="1"/>
<rect x="43" y="23" width="1" height="1"/>
<rect x="54" y="23" width="10" height="1"/>
<rect x="67" y="23" width="1" height="1"/>
<rect x="76" y="23" width="8" height="1"/>
<rect x="11" y="24" width="9" height="1"/>
<rect x="30" y="24" width="1" height="1"/>
<rect x="34" y="24" width="8" height="1"/>
<rect x="44" y="24" width="1" height="1"/>
<rect x="54" y="24" width="8" height="1"/>
<rect x="65" y="24" width="1" height="1"/>
<rect x="76" y="24" width="9" height="1"/>
<rect x="11" y="25" width="8" height="1"/>
<rect x="30" y="25" width="2" height="1"/>
<rect x="35" y="25" width="6" height="1"/>
<rect x="44" y="25" width="1" height="1"/>
<rect x="55" y="25" width="6" height="1"/>
<rect x="64" y="25" width="2" height="1"/>
<rect x="77" y="25" width="8" height="1"/>
<rect x="10" y="26" width="9" height="1"/>
<rect x="30" y="26" width="1" height="1"/>
<rect x="33" y="26" width="1" height="1"/>
<rect x="36" y="26" width="3" height="1"/>
<rect x="43" y="26" width="2" height="1"/>
<rect x="58" y="26" width="2" height="1"/>
<rect x="62" y="26" width="1" height="1"/>
<rect x="65" y="26" width="1" height="1"/>
<rect x="77" y="26" width="9" height="1"/>
<rect x="10" y="27" width="9" height="1"/>
<rect x="33" y="27" width="2" height="1"/>
<rect x="40" y="27" width="3" height="1"/>
<rect x="61" y="27" width="3" height="1"/>
<rect x="77" y="27" width="9" height="1"/>
<rect x="9" y="28" width="10" height="1"/>
<rect x="38" y="28" width="3" height="1"/>
<rect x="62" y="28" width="1" height="1"/>
<rect x="77" y="28" width="10" height="1"/>
<rect x="9" y="29" width="11" height="1"/>
<rect x="36" y="29" width="3" height="1"/>
<rect x="76" y="29" width="11" height="1"/>
<rect x="8" y="30" width="13" height="1"/>
<rect x="35" y="30" width="7" height="1"/>
<rect x="54" y="30" width="5" height="1"/>
<rect x="75" y="30" width="13" height="1"/>
<rect x="8" y="31" width="14" height="1"/>
<rect x="34" y="31" width="3" height="1"/>
<rect x="42" y="31" width="2" height="1"/>
<rect x="52" y="31" width="3" height="1"/>
<rect x="58" y="31" width="2" height="1"/>
<rect x="74" y="31" width="14" height="1"/>
<rect x="7" y="32" width="17" height="1"/>
<rect x="34" y="32" width="3" height="1"/>
<rect x="39" y="32" width="1" height="1"/>
<rect x="42" y="32" width="3" height="1"/>
<rect x="51" y="32" width="3" height="1"/>
<rect x="59" y="32" width="3" height="1"/>
<rect x="73" y="32" width="16" height="1"/>
<rect x="7" y="33" width="18" height="1"/>
<rect x="33" y="33" width="4" height="1"/>
<rect x="38" y="33" width="1" height="1"/>
<rect x="43" y="33" width="3" height="1"/>
<rect x="50" y="33" width="3" height="1"/>
<rect x="55" y="33" width="1" height="1"/>
<rect x="59" y="33" width="3" height="1"/>
<rect x="71" y="33" width="18" height="1"/>
<rect x="7" y="34" width="19" height="1"/>
<rect x="32" y="34" width="5" height="1"/>
<rect x="42" y="34" width="5" height="1"/>
<rect x="49" y="34" width="5" height="1"/>
<rect x="59" y="34" width="4" height="1"/>
<rect x="70" y="34" width="19" height="1"/>
<rect x="6" y="35" width="22" height="1"/>
<rect x="32" y="35" width="1" height="1"/>
<rect x="46" y="35" width="1" height="1"/>
<rect x="49" y="35" width="2" height="1"/>
<rect x="53" y="35" width="1" height="1"/>
<rect x="59" y="35" width="1" height="1"/>
<rect x="62" y="35" width="2" height="1"/>
<rect x="69" y="35" width="21" height="1"/>
<rect x="6" y="36" width="23" height="1"/>
<rect x="32" y="36" width="1" height="1"/>
<rect x="44" y="36" width="1" height="1"/>
<rect x="46" y="36" width="1" height="1"/>
<rect x="49" y="36" width="1" height="1"/>
<rect x="54" y="36" width="1" height="1"/>
<rect x="57" y="36" width="1" height="1"/>
<rect x="63" y="36" width="1" height="1"/>
<rect x="67" y="36" width="23" height="1"/>
<rect x="6" y="37" width="24" height="1"/>
<rect x="32" y="37" width="1" height="1"/>
<rect x="34" y="37" width="1" height="1"/>
<rect x="47" y="37" width="1" height="1"/>
<rect x="51" y="37" width="1" height="1"/>
<rect x="55" y="37" width="3" height="1"/>
<rect x="59" y="37" width="2" height="1"/>
<rect x="66" y="37" width="24" height="1"/>
<rect x="6" y="38" width="24" height="1"/>
<rect x="32" y="38" width="1" height="1"/>
<rect x="47" y="38" width="1" height="1"/>
<rect x="55" y="38" width="3" height="1"/>
<rect x="66" y="38" width="24" height="1"/>
<rect x="5" y="39" width="25" height="1"/>
<rect x="32" y="39" width="1" height="1"/>
<rect x="46" y="39" width="1" height="1"/>
<rect x="49" y="39" width="1" height="1"/>
<rect x="54" y="39" width="2" height="1"/>
<rect x="57" y="39" width="1" height="1"/>
<rect x="63" y="39" width="1" height="1"/>
<rect x="66" y="39" width="25" height="1"/>
<rect x="5" y="40" width="25" height="1"/>
<rect x="32" y="40" width="1" height="1"/>
<rect x="46" y="40" width="1" height="1"/>
<rect x="49" y="40" width="1" height="1"/>
<rect x="53" y="40" width="1" height="1"/>
<rect x="58" y="40" width="1" height="1"/>
<rect x="62" y="40" width="2" height="1"/>
<rect x="66" y="40" width="25" height="1"/>
<rect x="5" y="41" width="25" height="1"/>
<rect x="33" y="41" width="4" height="1"/>
<rect x="42" y="41" width="5" height="1"/>
<rect x="49" y="41" width="5" height="1"/>
<rect x="55" y="41" width="2" height="1"/>
<rect x="59" y="41" width="4" height="1"/>
<rect x="66" y="41" width="25" height="1"/>
<rect x="5" y="42" width="25" height="1"/>
<rect x="33" y="42" width="4" height="1"/>
<rect x="43" y="42" width="3" height="1"/>
<rect x="50" y="42" width="3" height="1"/>
<rect x="59" y="42" width="4" height="1"/>
<rect x="66" y="42" width="25" height="1"/>
<rect x="5" y="43" width="25" height="1"/>
<rect x="34" y="43" width="3" height="1"/>
<rect x="42" y="43" width="3" height="1"/>
<rect x="51" y="43" width="3" height="1"/>
<rect x="59" y="43" width="3" height="1"/>
<rect x="67" y="43" width="24" height="1"/>
<rect x="5" y="44" width="23" height="1"/>
<rect x="35" y="44" width="2" height="1"/>
<rect x="42" y="44" width="2" height="1"/>
<rect x="52" y="44" width="3" height="1"/>
<rect x="58" y="44" width="3" height="1"/>
<rect x="68" y="44" width="23" height="1"/>
<rect x="5" y="45" width="22" height="1"/>
<rect x="29" y="45" width="2" height="1"/>
<rect x="37" y="45" width="6" height="1"/>
<rect x="54" y="45" width="5" height="1"/>
<rect x="66" y="45" width="1" height="1"/>
<rect x="69" y="45" width="22" height="1"/>
<rect x="5" y="46" width="21" height="1"/>
<rect x="28" y="46" width="2" height="1"/>
<rect x="33" y="46" width="1" height="1"/>
<rect x="67" y="46" width="1" height="1"/>
<rect x="71" y="46" width="20" height="1"/>
<rect x="5" y="47" width="19" height="1"/>
<rect x="27" y="47" width="2" height="1"/>
<rect x="67" y="47" width="3" height="1"/>
<rect x="72" y="47" width="19" height="1"/>
<rect x="5" y="48" width="18" height="1"/>
<rect x="25" y="48" width="3" height="1"/>
<rect x="69" y="48" width="2" height="1"/>
<rect x="73" y="48" width="18" height="1"/>
<rect x="5" y="49" width="17" height="1"/>
<rect x="74" y="49" width="17" height="1"/>
<rect x="5" y="50" width="16" height="1"/>
<rect x="75" y="50" width="16" height="1"/>
<rect x="5" y="51" width="15" height="1"/>
<rect x="76" y="51" width="15" height="1"/>
<rect x="5" y="52" width="14" height="1"/>
<rect x="77" y="52" width="14" height="1"/>
<rect x="5" y="53" width="14" height="1"/>
<rect x="37" y="53" width="1" height="1"/>
<rect x="58" y="53" width="1" height="1"/>
<rect x="77" y="53" width="14" height="1"/>
<rect x="5" y="54" width="14" height="1"/>
<rect x="36" y="54" width="4" height="1"/>
<rect x="56" y="54" width="4" height="1"/>
<rect x="77" y="54" width="14" height="1"/>
<rect x="5" y="55" width="14" height="1"/>
<rect x="35" y="55" width="8" height="1"/>
<rect x="53" y="55" width="9" height="1"/>
<rect x="77" y="55" width="14" height="1"/>
<rect x="6" y="56" width="14" height="1"/>
<rect x="33" y="56" width="12" height="1"/>
<rect x="51" y="56" width="12" height="1"/>
<rect x="77" y="56" width="13" height="1"/>
<rect x="6" y="57" width="14" height="1"/>
<rect x="32" y="57" width="14" height="1"/>
<rect x="50" y="57" width="14" height="1"/>
<rect x="76" y="57" width="14" height="1"/>
<rect x="6" y="58" width="15" height="1"/>
<rect x="31" y="58" width="15" height="1"/>
<rect x="50" y="58" width="16" height="1"/>
<rect x="75" y="58" width="15" height="1"/>
<rect x="6" y="59" width="16" height="1"/>
<rect x="29" y="59" width="18" height="1"/>
<rect x="49" y="59" width="18" height="1"/>
<rect x="74" y="59" width="16" height="1"/>
<rect x="7" y="60" width="16" height="1"/>
<rect x="27" y="60" width="20" height="1"/>
<rect x="49" y="60" width="20" height="1"/>
<rect x="73" y="60" width="16" height="1"/>
<rect x="7" y="61" width="82" height="1"/>
<rect x="7" y="62" width="57" height="1"/>
<rect x="65" y="62" width="24" height="1"/>
<rect x="8" y="63" width="16" height="1"/>
<rect x="30" y="63" width="3" height="1"/>
<rect x="35" y="63" width="3" height="1"/>
<rect x="40" y="63" width="3" height="1"/>
<rect x="45" y="63" width="1" height="1"/>
<rect x="51" y="63" width="1" height="1"/>
<rect x="54" y="63" width="4" height="1"/>
<rect x="59" y="63" width="1" height="1"/>
<rect x="66" y="63" width="2" height="1"/>
<rect x="70" y="63" width="18" height="1"/>
<rect x="8" y="64" width="16" height="1"/>
<rect x="26" y="64" width="2" height="1"/>
<rect x="30" y="64" width="2" height="1"/>
<rect x="35" y="64" width="3" height="1"/>
<rect x="41" y="64" width="2" height="1"/>
<rect x="45" y="64" width="1" height="1"/>
<rect x="48" y="64" width="4" height="1"/>
<rect x="54" y="64" width="4" height="1"/>
<rect x="60" y="64" width="2" height="1"/>
<rect x="64" y="64" width="4" height="1"/>
<rect x="71" y="64" width="17" height="1"/>
<rect x="8" y="65" width="15" height="1"/>
<rect x="25" y="65" width="7" height="1"/>
<rect x="36" y="65" width="2" height="1"/>
<rect x="42" y="65" width="1" height="1"/>
<rect x="45" y="65" width="1" height="1"/>
<rect x="50" y="65" width="2" height="1"/>
<rect x="54" y="65" width="4" height="1"/>
<rect x="60" y="65" width="2" height="1"/>
<rect x="64" y="65" width="3" height="1"/>
<rect x="71" y="65" width="17" height="1"/>
<rect x="9" y="66" width="14" height="1"/>
<rect x="25" y="66" width="6" height="1"/>
<rect x="33" y="66" width="1" height="1"/>
<rect x="36" y="66" width="2" height="1"/>
<rect x="45" y="66" width="1" height="1"/>
<rect x="51" y="66" width="1" height="1"/>
<rect x="54" y="66" width="4" height="1"/>
<rect x="60" y="66" width="2" height="1"/>
<rect x="64" y="66" width="3" height="1"/>
<rect x="69" y="66" width="1" height="1"/>
<rect x="72" y="66" width="15" height="1"/>
<rect x="9" y="67" width="14" height="1"/>
<rect x="25" y="67" width="6" height="1"/>
<rect x="36" y="67" width="2" height="1"/>
<rect x="40" y="67" width="1" height="1"/>
<rect x="45" y="67" width="1" height="1"/>
<rect x="48" y="67" width="4" height="1"/>
<rect x="54" y="67" width="4" height="1"/>
<rect x="60" y="67" width="2" height="1"/>
<rect x="64" y="67" width="3" height="1"/>
<rect x="72" y="67" width="15" height="1"/>
<rect x="10" y="68" width="14" height="1"/>
<rect x="37" y="68" width="1" height="1"/>
<rect x="40" y="68" width="2" height="1"/>
<rect x="45" y="68" width="1" height="1"/>
<rect x="51" y="68" width="1" height="1"/>
<rect x="57" y="68" width="1" height="1"/>
<rect x="60" y="68" width="2" height="1"/>
<rect x="64" y="68" width="2" height="1"/>
<rect x="73" y="68" width="13" height="1"/>
<rect x="10" y="69" width="15" height="1"/>
<rect x="29" y="69" width="1" height="1"/>
<rect x="32" y="69" width="3" height="1"/>
<rect x="37" y="69" width="1" height="1"/>
<rect x="40" y="69" width="3" height="1"/>
<rect x="44" y="69" width="2" height="1"/>
<rect x="51" y="69" width="1" height="1"/>
<rect x="57" y="69" width="1" height="1"/>
<rect x="59" y="69" width="3" height="1"/>
<rect x="64" y="69" width="2" height="1"/>
<rect x="68" y="69" width="3" height="1"/>
<rect x="73" y="69" width="13" height="1"/>
<rect x="11" y="70" width="74" height="1"/>
<rect x="12" y="71" width="72" height="1"/>
<rect x="12" y="72" width="20" height="1"/>
<rect x="36" y="72" width="4" height="1"/>
<rect x="41" y="72" width="4" height="1"/>
<rect x="46" y="72" width="5" height="1"/>
<rect x="52" y="72" width="2" height="1"/>
<rect x="59" y="72" width="2" height="1"/>
<rect x="65" y="72" width="19" height="1"/>
<rect x="13" y="73" width="18" height="1"/>
<rect x="36" y="73" width="3" height="1"/>
<rect x="42" y="73" width="3" height="1"/>
<rect x="47" y="73" width="3" height="1"/>
<rect x="52" y="73" width="2" height="1"/>
<rect x="59" y="73" width="1" height="1"/>
<rect x="65" y="73" width="18" height="1"/>
<rect x="14" y="74" width="16" height="1"/>
<rect x="32" y="74" width="7" height="1"/>
<rect x="42" y="74" width="3" height="1"/>
<rect x="48" y="74" width="1" height="1"/>
<rect x="52" y="74" width="2" height="1"/>
<rect x="56" y="74" width="4" height="1"/>
<rect x="62" y="74" width="20" height="1"/>
<rect x="15" y="75" width="15" height="1"/>
<rect x="32" y="75" width="2" height="1"/>
<rect x="37" y="75" width="1" height="1"/>
<rect x="40" y="75" width="1" height="1"/>
<rect x="43" y="75" width="2" height="1"/>
<rect x="52" y="75" width="2" height="1"/>
<rect x="58" y="75" width="2" height="1"/>
<rect x="65" y="75" width="16" height="1"/>
<rect x="15" y="76" width="15" height="1"/>
<rect x="32" y="76" width="2" height="1"/>
<rect x="37" y="76" width="1" height="1"/>
<rect x="43" y="76" width="2" height="1"/>
<rect x="50" y="76" width="1" height="1"/>
<rect x="52" y="76" width="2" height="1"/>
<rect x="56" y="76" width="7" height="1"/>
<rect x="65" y="76" width="16" height="1"/>
<rect x="16" y="77" width="15" height="1"/>
<rect x="33" y="77" width="2" height="1"/>
<rect x="37" y="77" width="1" height="1"/>
<rect x="44" y="77" width="1" height="1"/>
<rect x="46" y="77" width="2" height="1"/>
<rect x="49" y="77" width="2" height="1"/>
<rect x="52" y="77" width="2" height="1"/>
<rect x="56" y="77" width="1" height="1"/>
<rect x="58" y="77" width="2" height="1"/>
<rect x="62" y="77" width="1" height="1"/>
<rect x="65" y="77" width="15" height="1"/>
<rect x="17" y="78" width="15" height="1"/>
<rect x="36" y="78" width="1" height="1"/>
<rect x="39" y="78" width="3" height="1"/>
<rect x="44" y="78" width="1" height="1"/>
<rect x="46" y="78" width="5" height="1"/>
<rect x="52" y="78" width="2" height="1"/>
<rect x="59" y="78" width="1" height="1"/>
<rect x="65" y="78" width="14" height="1"/>
<rect x="18" y="79" width="60" height="1"/>
<rect x="19" y="80" width="58" height="1"/>
<rect x="21" y="81" width="54" height="1"/>
<rect x="22" y="82" width="52" height="1"/>
<rect x="23" y="83" width="50" height="1"/>
<rect x="25" y="84" width="46" height="1"/>
<rect x="26" y="85" width="44" height="1"/>
<rect x="28" y="86" width="40" height="1"/>
<rect x="30" y="87" width="36" height="1"/>
<rect x="33" y="88" width="30" height="1"/>
<rect x="36" y="89" width="24" height="1"/>
<rect x="40" y="90" width="16" height="1"/>
</g>
</svg>